<?xml version="1.0" encoding="utf-8"?>
<!-- Generator: Adobe Illustrator 23.0.1, SVG Export Plug-In . SVG Version: 6.00 Build 0)  -->
<svg version="1.1" id="Layer_1" xmlns="http://www.w3.org/2000/svg" xmlns:xlink="http://www.w3.org/1999/xlink" x="0px" y="0px"
	 viewBox="0 0 179.6 40.8" style="enable-background:new 0 0 179.6 40.8;" xml:space="preserve">
<style type="text/css">
	.st0{fill:#A93843;}
	.st1{fill:#FFFFFF;}
	.st2{fill:#FCA078;}
	.st3{fill:none;stroke:#FFFFFF;stroke-width:3;stroke-miterlimit:10;}
	.st4{fill:none;stroke:#FFFFFF;stroke-width:2;stroke-miterlimit:10;}
	.st5{fill:none;stroke:#F9F9F9;stroke-width:2;stroke-miterlimit:10;}
	.st6{fill:none;stroke:#A93843;stroke-width:3;stroke-miterlimit:10;}
</style>
<rect x="132.6" y="2.4" class="st0" width="43.7" height="35.9"/>
<g>
	<path class="st6" d="M14.6,4.1c0,0-3.6,5.5-7.4,9s-9.1,16.3,7,18.5c-2.8-2.9-6.9-7.3-2.4-16.5S14.6,4.1,14.6,4.1z"/>
	<path class="st6" d="M15.3,4.6c0,0,3.8,1,5.7,10.3c1.7,9.3-2.3,16.1-2.9,16.6c-0.6,0.5-2.1,0.4-3.8,0.2c0,0-2.5-2.6-3.2-4.1
		c-0.7-1.6-1.2-3.4-1.2-5.2s0.8-5.3,2.7-8.6c1.5-3.4,2.1-5.9,2.2-6.7S15.3,4.6,15.3,4.6z"/>
	<path class="st6" d="M18.9,8.6c0,0,0.2-3.6,1.2-4.4c0,0,1.4,5,4.9,7.4s6.3,7,5.8,10.4c-0.5,3.4-2.4,7.2-6.4,8.6
		c-3.6,1.3-6,1.4-6,1.4s-0.7-0.3-0.4-0.6c0.3-0.3,1.8-2.6,2.6-6.1c0.8-3.5,0.9-8.2,0-11.6C19.7,10.4,18.9,8.6,18.9,8.6z"/>
</g>
<g>
	<g>
		<path class="st0" d="M55.5,24.7c0,1-0.3,1.9-0.9,2.7c-0.6,0.8-1.5,1.4-2.6,1.8c-0.9,0.3-2,0.6-3.2,0.7c-1.2,0.1-2.6,0.2-4,0.2
			c-0.8,0-1.6,0-2.5,0c-0.9,0-1.5,0-1.9-0.1c0-1.5,0-3,0-4.5c0-1.5,0-3.2,0-4.9c0-1.9,0-3.8,0-5.6c0-1.8,0-2.8,0-2.9
			c0.2,0,0.6,0,1.5-0.1c0.8,0,1.7-0.1,2.7-0.1c1.5,0,2.7,0,3.6,0.1c1,0.1,1.8,0.2,2.6,0.5c1,0.3,1.8,0.8,2.4,1.4
			c0.6,0.6,0.9,1.4,0.9,2.4c0,0.8-0.2,1.6-0.7,2.3c-0.5,0.7-1.2,1.2-2,1.5v0.1c0.5,0.1,1,0.2,1.5,0.4c0.5,0.2,0.9,0.4,1.2,0.7
			c0.5,0.4,0.9,0.9,1.2,1.4S55.5,24,55.5,24.7z M50.9,24.2c0-0.4-0.1-0.8-0.2-1.1s-0.4-0.6-0.7-0.8c-0.2-0.2-0.6-0.4-1-0.5
			c-0.4-0.1-0.8-0.2-1.3-0.2c-0.4,0-0.7,0-0.9,0c-0.2,0-0.4,0-0.4,0L46.1,20c0.5,0,0.9-0.1,1.3-0.2c0.4-0.1,0.8-0.3,1-0.5
			c0.3-0.2,0.5-0.5,0.7-0.8c0.2-0.3,0.3-0.7,0.3-1.2c0-0.4-0.1-0.8-0.3-1.1c-0.2-0.3-0.5-0.6-0.9-0.8c-0.3-0.2-0.7-0.3-1.1-0.3
			s-0.9-0.1-1.3-0.1c-0.2,0-0.5,0-0.7,0s-0.4,0-0.5,0c0,0.9,0,1.9,0,3s0,2.1,0,2.9c0,0.9,0,2.1,0,3.6c0,1.5,0,2.4,0,2.5
			c0.1,0,0.3,0,0.6,0c0.3,0,0.5,0,0.9,0c0.7,0,1.4,0,2-0.1c0.6-0.1,1.2-0.2,1.6-0.5c0.4-0.2,0.7-0.5,1-0.9
			C50.8,25.2,50.9,24.7,50.9,24.2z"/>
		<path class="st0" d="M71.7,30h-4v-1.3l0,0c-0.6,0.4-1.4,0.7-2.4,1.1c-1,0.4-1.9,0.6-2.7,0.6c-1.3,0-2.3-0.4-3-1.2
			c-0.7-0.8-1.1-1.8-1.1-3.2c0-0.8,0-1.8,0-2.8c0-1,0-1.7,0-2.2c0-0.8,0-1.8,0-2.9c0-1.1,0-1.7,0-2h4.1c0,0.2,0,0.8,0,1.9
			c0,1,0,1.9,0,2.6c0,0.5,0,1.2,0,2.1s0,1.4,0,1.8c0,0.8,0.1,1.4,0.4,1.8c0.2,0.4,0.7,0.6,1.3,0.6c0.6,0,1.2-0.1,1.9-0.4
			s1.2-0.5,1.5-0.8c0-0.1,0-0.5,0-1.4s0-1.8,0-2.8c0-0.9,0-2,0-3.2c0-1.2,0-1.9,0-2.2h4.1c0,0.2,0,0.9,0,2c0,1.1,0,2.5,0,4.2
			c0,1.2,0,2.2,0,3.2C71.7,26.7,71.7,28.1,71.7,30z"/>
		<path class="st0" d="M97.4,30h-4.1c0-0.4,0-1,0-1.9c0-0.8,0-1.8,0-2.8c0-0.4,0-1,0-1.8c0-0.8,0-1.5,0-1.9c0-0.9-0.2-1.5-0.5-1.8
			c-0.3-0.3-0.7-0.5-1.3-0.5c-0.4,0-0.9,0.1-1.4,0.3s-1,0.4-1.6,0.7c0,0,0,0.1,0,0.2c0,0.1,0,0.3,0,0.4c0,0.7,0,1.4,0,2.1
			c0,0.7,0,1.3,0,1.9c0,1.2,0,2.2,0,3.2c0,1,0,1.6,0,1.9h-4.1c0-0.2,0-0.8,0-1.6c0-0.8,0-1.8,0-3c0-0.4,0-1.1,0-1.9
			c0-0.8,0-1.4,0-1.9c0-0.3,0-0.6-0.1-0.9c0-0.3-0.1-0.5-0.2-0.7c-0.1-0.2-0.3-0.4-0.5-0.5c-0.2-0.1-0.5-0.2-1-0.2
			c-0.4,0-0.9,0.1-1.4,0.3c-0.5,0.2-1.1,0.5-1.6,0.8c0,0.1,0,0.6,0,1.7c0,1,0,1.8,0,2.4c0,1,0,2,0,3.2c0,1.2,0,2,0,2.3h-4.1
			c0-0.4,0-1.2,0-2.2c0-1,0-2.5,0-4.4c0-0.8,0-1.8,0-3c0-1.2,0-2.6,0-4.1h4l0,1.3l0,0c0.5-0.3,1.3-0.7,2.2-1.1
			c1-0.4,1.8-0.6,2.6-0.6c0.8,0,1.5,0.2,2.1,0.5c0.6,0.3,1,0.8,1.3,1.3h0c0.8-0.5,1.7-0.9,2.7-1.2c1-0.3,1.9-0.5,2.7-0.5
			c1.3,0,2.3,0.4,3,1.1c0.7,0.8,1.1,1.8,1.1,3c0,1,0,1.9,0,2.5s0,1.3,0,1.9c0,1.2,0,2.3,0,3.3C97.4,28.9,97.4,29.6,97.4,30z"/>
		<path class="st0" d="M114.5,23c0,1.4-0.4,2.6-1.1,3.7c-0.7,1-1.7,1.8-2.9,2.4c-0.9,0.4-1.9,0.7-3.1,0.8c-1.2,0.2-2.6,0.3-4.3,0.3
			c-0.5,0-0.9,0-1.2,0c-0.3,0-0.6,0-0.9,0c0-0.6,0-1.8,0-3.5c0-1.7,0-4,0-6.8c0-2.1,0-3.9,0-5.4c0-1.5,0-2.9,0-4h4.1l0,6
			c1.4,0,2.6,0.2,3.5,0.4c0.9,0.2,1.8,0.6,2.5,1c1.1,0.5,1.9,1.3,2.4,2.2C114.3,20.9,114.5,21.9,114.5,23z M110.4,22.9
			c0-0.8-0.2-1.4-0.6-2c-0.4-0.6-1-1-1.6-1.3c-0.4-0.2-0.8-0.3-1.3-0.4c-0.5-0.1-0.9-0.1-1.4-0.1c-0.1,0-0.2,0-0.2,0s-0.1,0-0.2,0
			c0,0.2,0,0.7,0,1.6c0,0.9,0,1.7,0,2.3c0,1,0,1.8,0,2.3c0,0.5,0,1.1,0,1.7c0.7,0,1.3-0.1,1.9-0.2c0.6-0.1,1.1-0.3,1.5-0.5
			c0.6-0.4,1.1-0.8,1.4-1.4C110.3,24.5,110.4,23.8,110.4,22.9z"/>
		<path class="st0" d="M130.5,30h-4v-1.3l0,0c-0.6,0.4-1.4,0.7-2.4,1.1s-1.9,0.6-2.7,0.6c-1.3,0-2.3-0.4-3-1.2
			c-0.7-0.8-1.1-1.8-1.1-3.2c0-0.8,0-1.8,0-2.8c0-1,0-1.7,0-2.2c0-0.8,0-1.8,0-2.9c0-1.1,0-1.7,0-2h4.1c0,0.2,0,0.8,0,1.9
			c0,1,0,1.9,0,2.6c0,0.5,0,1.2,0,2.1s0,1.4,0,1.8c0,0.8,0.1,1.4,0.4,1.8c0.2,0.4,0.7,0.6,1.3,0.6c0.6,0,1.2-0.1,1.9-0.4
			c0.7-0.3,1.2-0.5,1.5-0.8c0-0.1,0-0.5,0-1.4s0-1.8,0-2.8c0-0.9,0-2,0-3.2c0-1.2,0-1.9,0-2.2h4.1c0,0.2,0,0.9,0,2s0,2.5,0,4.2
			c0,1.2,0,2.2,0,3.2C130.5,26.7,130.5,28.1,130.5,30z"/>
		<path class="st1" d="M141.3,30h-4.4c0-0.3,0-1.3,0-3c0-1.7,0-4,0-6.8c0-1.1,0-2.3,0-3.7c0-1.4,0-2.9,0-4.3h4.4c0,1.3,0,2.8,0,4.5
			c0,1.7,0,3.2,0,4.6c0,2.5,0,4.5,0,6.1C141.3,28.8,141.3,29.7,141.3,30z M153.2,28.7l-4,1.6c-1.8-2.3-3.6-4.3-5.2-6.2
			s-2.5-2.8-2.7-2.9v0c0.5-0.6,1.4-1.8,2.9-3.7s2.9-3.8,4.4-5.8l3.9,1.6c-1.3,1.5-2.5,3.1-3.8,4.7c-1.3,1.6-2.1,2.6-2.3,2.8l0,0
			c0.1,0.1,0.8,0.9,2.1,2.4C149.8,24.9,151.4,26.7,153.2,28.7z"/>
		<path class="st1" d="M172.2,12.1c0,1.7,0,3,0,4c0,1,0,1.8,0,2.7c0,1,0,1.9,0,2.6c0,0.7,0,1.4,0,1.9c0,1.2-0.2,2.3-0.6,3.2
			c-0.4,0.9-1,1.6-1.7,2.2c-0.8,0.7-1.7,1.1-2.6,1.4c-1,0.3-2.1,0.5-3.3,0.5c-1.4,0-2.6-0.2-3.6-0.5c-1-0.3-1.8-0.8-2.5-1.4
			c-0.7-0.6-1.3-1.4-1.7-2.2c-0.4-0.9-0.6-1.9-0.6-3.2c0-0.5,0-1.2,0-1.9c0-0.7,0-1.6,0-2.6c0-0.9,0-1.8,0-2.7c0-0.9,0-2.2,0-3.9
			h4.4c0,0.8,0,1.7,0,2.8s0,2.4,0,3.8c0,0.7,0,1.4,0,2.1c0,0.7,0,1.4,0,2.1c0,1.3,0.4,2.3,1.1,3c0.7,0.7,1.7,1,2.9,1
			c1.3,0,2.2-0.3,2.9-1s1-1.6,1-3c0-0.7,0-1.4,0-2.2s0-1.4,0-2c0-1.4,0-2.7,0-3.9c0-1.1,0-2.1,0-2.8H172.2z"/>
	</g>
</g>
</svg>
